<?xml version="1.0" encoding="UTF-8"?>
<svg id="_ÎÓÈ_1" data-name="—ÎÓÈ_1" xmlns="http://www.w3.org/2000/svg" viewBox="0 0 252.71 182.74">
  <defs>
    <style>
      .cls-1 {
        fill: #f5c518;
      }
    </style>
  </defs>
  <path class="cls-1" d="M244.15,26.92c-2.97-1.82-5.96-3.34-9.28-4.23h-.02c-2.49-3.03-5.13-5.99-7.95-8.64-2.67-2.51-5.77-3.51-9.22-4.3.11-3.15-.06-6.2-.56-9.39-.02-.16-.29-.19-.35-.05-.94,2.11-2.38,3.63-3.71,5.46-.32.43-.57.86-.77,1.31-1.65-2.6-3.83-4.82-6.05-7.03-.13-.11-.29-.03-.34.1-.72,1.71-.72,3.5-.46,5.32.22,1.52,1.25,3.03,1.92,4.55-6.09.65-12.19,1.87-17.83,4.28-6.23,2.65-11.33,8.07-16.48,12.32-.14.13.02.38.21.34,1.79-.54,3.59-1.07,5.42-1.55,0-.02.02-.02.03,0,1.28-.19,2.72-.62,4.14-1.09h.02c.57-.16,1.13-.29,1.71-.43-6.41,3.83-13.55,6.18-18.39,12.32-.13.18.03.42.26.32,3.15-1.41,6.36-2.46,9.68-3.24-2.32,1.52-5.37,2.41-7.49,4.06-3.05,2.36-5.45,5.37-7.59,8.55-.14.19.14.37.3.24,4.26-3.48,9.71-4.33,14.78-6.07-4.71,7.65-13.75,16.79-22.97,14.58-.14-.03-.34.14-.22.3,1.6,2.19,3.9,3.24,6.47,3.64-12.75,4.23-26.24,1.21-39.58,0-10.35-.94-20.16.13-29.6,3.58h-.02c-5.29-1.29-10.62-2.19-15.7-2.11-.32,0-.65,0-.97.02-.34.02-.69.03-1.02.05-1.96.11-3.91.42-5.83.96-.32.1-.64.19-.94.29-.24.06-.5.16-.73.24-5.19,1.81-9.74,5.38-13.15,11.53-4.76,8.64-7.95,17.91-14.33,25.64-6.53,7.92-16.77,12.17-26.9,11.87-.05,0-.1,0-.14-.02-.58,0-1.15-.03-1.71-.1h-.03c-2.89-.24-5.75-.86-8.48-1.88-.19-.08-.34.19-.19.34,5.19,4.94,11.53,7.22,18.61,7.99,2.04.22,4.41.53,6.71.5-4.92,1.74-10.94,1.57-15.53,1.2-.19-.02-.26.27-.1.37,6.77,4.19,18.82,1.88,25.8-1.12,4.36-1.87,7.88-4.65,10.89-7.95-1.76,2.67-3.99,5.05-6.37,6.93-2.22,1.74-5.65,2.3-7.33,4.55-.08.13.03.32.18.3,7.92-.69,14.82-8.58,19.28-14.5,3.1-4.11,5.34-8.55,7.38-13.24,1.66-3.85,3.23-8.08,6.23-11.2,2.2-2.25,4.6-3.35,7.16-3.93-.06,3.32.62,6.37,1.63,9.42.96,3.58,2.41,7.19,4.17,10.54.03.06.06.13.1.19.97,2.12,2.04,4.15,3.34,6.09-1.63,2.33-3.29,4.65-5.02,6.92-2.97,1.58-6.04,2.59-9.22,3.8-1.34.51-2.14.72-2.73,2.17-.69,1.73.16,3.47.91,4.98,1.44,2.86,3.08,5.53,4.46,8.4-.62,6.85-.89,13.72-.78,20.61,0,.11.08.19.18.21-.99,6.33-.62,12.67-1.1,19.22-.35,4.74-1.09,6.92,3.63,6.36-.11,1.65.08,3.27,1.18,4.03.86.59,2.59.61,3.59.73,1.92.27,3.74.29,5.65-.08.11-.03.16-.16.14-.26-.34-2-.94-3.88-2.01-5.61-1.2-1.98-3.72-3.67-4.33-5.99.24.24.5.4.77.45,1.29.26,1.88-1.33,2.43-2.16,2.25-3.5,5.49-6.63,5.72-10.83,1.71-1.87,3.31-4.28,3.16-6.25-.13-1.61-1.68-3.19-2.49-4.42-1.36-2.03-2.72-4.06-4.11-6.07.08-.06.16-.14.24-.22.75-.78,1.44-1.65,2.14-2.46.35-.42.73-.81,1.1-1.23t.02-.02c5.83-5.26,10.77-11.29,16.12-17.04,4.66-5.03,10.19-9.04,13.8-14.87,13.11,10.35,29.09,10.62,45.59,9.49,0,1.77.03,3.56-.05,5.35-.19,4.03-.62,8.05-1.02,12.06-1.1,2.06-2.04,4.22-2.73,6.45-1.31,4.31-.59,8.98-.96,13.53-.45.94-.88,1.9-1.21,2.92-1.29,3.93-2.99,8.35-3.07,12.52-.08,4.49,2.11,5.08,5.78,5.13-.02,1.1.06,2.24.5,2.81.46.62,2.22,1.1,2.92,1.33,2.56.83,6.47,1.37,8.88-.05.06-.03.1-.1.1-.18-.1-2.09-2.22-3.99-3.67-5.24-2.38-2.04-4.87-3.95-7.32-5.91.89-4.14,1.74-8.26,2.33-12.44,3.39-8.03,6.07-16.25,8.07-24.71,2.22-4.38,3.9-9.28,5.45-13.82.94-.03,1.85-.05,2.14-.1,1.34-.21,2.62-.54,3.9-.97,1.07,3.45,3.31,5.22,7.44,6.63,7.7,2.62,15.93,3.59,23.78,5.86.54,6.05.46,11.95.22,18.05-.61,1.31-1.15,2.65-1.47,4.07-.53,2.36-.61,4.71-1.39,6.93-.4.3-.83.57-1.26.81-.94.54-2.27.86-3,1.68-.45.53-.61.93-.75,1.6-.53,2.64.85,7.08,3.05,8.67,1.58,1.15,2.54,1.02,3.53-.38,1.25-1.76,1.8-5.08,2.51-7.14.77-2.24,1.5-4.47,2.24-6.71,1.73-1.07,2.64-2.25,3.27-4.86,1.6-6.52,1.37-14.58,1.57-21.24.24-8.83-5.18-10.86-12.38-14.04-3.31-2.88-6.58-5.86-8.83-9.6,2.38-3.58,3.4-9.5,3.77-13.13.69-6.93.16-14.02-.89-20.94,3.64-7.6,6.13-15.57,7.51-23.91,1.69-2.12,3.24-4.34,4.66-6.66,8.45,1.58,16.93,2.01,25.62,2.03.24.62.4,1.37.77,1.85.59.77,2.38.99,3.26,1.05,2.25.16,4.09-1.31,4.73-3.32,1.36-.14,2.52-.64,3.15-2.22.8-2.04.11-4.65-1.09-6.37-1.66-2.41-4.7-3.96-7.12-5.45ZM76.41,160.94c.3-1.52.32-3.08.34-4.62.02-.78-.34-8.11.67-9.66,2.16,3.5,3.45,7.03,3.13,11.17-1.33,1.28-2.73,2.43-4.2,3.5.03-.24.06-.38.06-.38Z"/>
</svg>