<?xml version="1.0" encoding="UTF-8"?>
<svg id="_ÎÓÈ_1" data-name="—ÎÓÈ_1" xmlns="http://www.w3.org/2000/svg" viewBox="0 0 261.21 173.81">
  <defs>
    <style>
      .cls-1 {
        fill: #f5c518;
      }
    </style>
  </defs>
  <path class="cls-1" d="M.13,94.88c4.67-.58,8.64.17,13.2.86,1.96.29,4.34.38,6.47-.03-2.61,1.79-5.57,3.02-8.49,4.22-.16.06-.11.29.06.26,4.89-.73,9.84-1.03,14.76-1.39-4.98,5.73-11.33,9.03-19.25,9.5-.12,0-.19.18-.06.25,2.55,1.27,6.38.86,9.14.79,3.25-.06,6.46-.43,9.66-1.02-4.17,3.13-9.15,4.74-13.59,7.57-3.29,2.1-4.1,4.94-4.74,8.7-.02.14.16.24.25.1,1.75-2.94,4.45-4.99,7.52-6.63.09-.05.19-.1.28-.15,3.97-2.08,8.54-3.5,12.48-5.27-2.07,4.75-5.95,8.74-5.17,14.36.02.14.24.12.27,0,.25-.91.56-1.76.93-2.59.48-.88,1.02-1.95,1.3-2.47.03-.05.06-.12.1-.17,3.26-5.2,8.56-8.89,13.02-13.14-1.04,2.49-2.47,5.72-2.5,6.87-.11.39-.22.78-.3,1.18-.04.17.19.23.26.08.7-1.71,1.98-3.44,3.47-5.1.01-.02.03-.03.05-.05.75-.77,1.36-1.39,1.54-1.57.18-.21.37-.4.56-.6.05-.04.1-.09.14-.14,1.44-1.37,2.9-2.66,4.1-3.77,3.88-3.55,8.28-6.32,12.81-8.92-.42,3.34-1.92,6.38-4.44,8.74-2.31,2.15-5.33,3.03-7.73,5.01-.1.09.01.28.14.23,4.3-1.6,9.51-3.1,13.13-6.03,2.7-2.19,4.9-5.03,6.71-8.04-1.19,4.43-2.97,8.62-5.35,12.63-.08.12.11.28.21.16.79-.94,1.6-1.83,2.4-2.71.66-.56,1.26-1.24,1.82-1.89.36-.41.71-.84,1.07-1.29,1.53-1.72,2.98-3.54,4.22-5.67,3-5.16,5.24-12.16,10.78-14.54-2.03,6.38-1.05,12.63,2.65,18.37,2.41,3.76,4.58,7.25,6.39,11.33.61,1.36,1.27,3.71,2.16,5.65-3,4.04-6,8.08-9,12.11-1.8,2.44-4.26,4.6-3.7,7.8.62,3.5,2.66,7.25,4.12,10.49.84,1.87,1.76,3.88,2.74,5.83.93,4.09,1.75,8.19,3.28,12.12.01.02.02.03.02.05.26.75.54,1.43.86,1.97.01.03.02.05.03.06,1.85,3.7,3.75,2.31,7.2,1.56.18,1.97.15,2.42,2.77,2.67,3.1.29,8.05,1.22,10.93-.28.04-.02.08-.08.06-.12-.15-2.81-2.98-6.65-5.15-8.31-1.06-.81-1.92-1.01-3.25-1.23-2.96-.51-5-1.39-7.31-2.93-1.37-3.56-3.1-7.19-4.06-10.9-1.37-5.28,1.26-9.74,4.3-13.83,2.55-3.43,5.66-6.39,8.39-9.66,1.09-1.3,3.05-4.75,4.84-6.84,5.13,4.75,8.77,10.77,10.19,17.69,1.11,5.42.89,6.4,6.33,8.06.49.15.98.3,1.48.45,3.45,1.33,7.2,2.23,10.69,3.49.05.01.1.03.14.05,3.59,1.42,7,3.17,9.75,5.54,3.8,3.27,5.13,5.54,9.41,5.03-.53,3.33-.55,5.65,2.78,7.71,1.87,1.15,3.11,1.05,5.17.38,1.24-.41,5.12-1.13,5.77-2.46.84-1.75-2.54-5.06-3.7-6.4-1.5-1.74-3.13-2.87-4.89-3.67-.01-.01-.02-.01-.03-.01-3.14-2.23-6.82-3.93-9.94-5.63-6.2-3.36-12.04-6.97-17.75-11.03-.97-5.44-3.95-10.18-5.73-15.45-1.61-4.85-3.04-9.85-4.87-14.66,12.09,1.26,24.63,1.12,36.74.71,9.03-.3,19.78-.28,28.37-4.05,1.48,2.74,3.89,1.97,7.26,1.37,4.6-.81,9.2-1.57,13.84-2.12,3.29-.39,7.51-1.28,11.25-.84,3.27,2.06,3.97,6.07,3.59,9.75-.36,3.38-.94,4.84-3.46,6.97-.75.63-1.16,1.09-1.41,1.62-2.1-.31-4.63-.04-5.67,1.86-.74,1.37-.95,3.46-1.35,4.98-.51,1.89-1.22,3.81-1.28,5.78-.01.08.05.14.13.14,2.93-.23,5.64-1.08,8.06-2.55.31.09.6.26.83.51.04.03.1.02.14,0,1.66-.76,3.31-2.31,4.82-3.57.73-.52,1.46-1.06,2.14-1.61.01-.01.02-.01.03-.02,1.45-.96,3.15-2.1,3.83-3.44.68-1.35.27-3.43.12-4.81-.01-.06-.02-.13-.03-.21.69-5.19,1.48-10.97.55-16.12,3.66,1.6,7.79,3.76,9.7,7.04,1.83,3.17,2.92,6.78,3.53,10.35.53,3.15,1.69,4.09,3.91,4.46.47,2.94-2.1,6.33.3,8.89,1.18,1.26,9.21,4.19,10.41,2.84.41-.48.26-.13.38-.89-.19-.54-.38-1.08-.54-1.63-.22-1.13-.32-2.27-.35-3.42-.06-.78-.04-1.56-.18-2.34-.32-1.82-1.32-3.5-2.61-5.01-.73-2.52-1.31-5.12-2.42-7.39-.6-1.2-1.55-2.21-2.63-3.12-2.38-3.52-3.8-7.1-5.74-11.11-1.36-2.81-2.97-4.61-5.74-6.11-6.98-3.77-15.39-5.77-23.24-7.74,2.76-7.05-.26-15.2-3.99-21.89.19-3.44.19-6.9.76-10.37.66-4.02,1.3-8.1,2.27-12.07,2.15,1.56,4.51,2.87,6.54,4.62,3.09,2.66,6.16,5.38,8.52,8.72-.03.77.02,1.52.18,2.21.29,1.22,1.39,2.09,2.36,2.8,1.04.76,3.75,1.57,4.21.1,2.24.79,4.97-.71,6.35-3.41.56-1.09.95-2.2,1.19-3.3.49-2.26.3-4.56-.45-6.94-1.57-4.88-3.89-9.54-5.66-14.38.32-2.4.81-4.63-.05-7.2-1.04-3.07-2.49-5.94-4.28-8.64,1.01-1.74,1.78-3.58,2.5-5.49.68-1.8,2.78-5.26,2.18-7.19-.02-.06-.06-.1-.13-.11-1.02-.1-1.99,1.4-2.61,2.01-1.86,1.86-3.73,3.42-5.92,4.81-.13-.17-.29-.32-.45-.47-.83-.69-1.88-1.02-2.92-1.24-.01-.05-.03-.1-.04-.15-.49-1.6-1.55-2.92-2.02-4.55-.02-.08-.13-.13-.19-.09-1.31.87-2.6,1.84-3.44,3.09-2.36-.54-4.59-.41-7.1,0-.04.01-.08.01-.12.01-7.25-2.63-14.41-6.91-22.02-7.86-5.28-.66-12.12-1.04-17.07,1.71-.01,0-.02,0-.03.01-1.31.48-2.48.96-1.29.82-.58.41-1.14.89-1.63,1.43-.12.13.06.29.19.18,5.25-4.36,13.23-1.13,18.72,1.53-2.4.96-5.55.48-7.99.51-3.03.04-6.11.14-9.13.44-3.4.36-6.09,1.16-8.43,3.72-.1.11.03.29.16.21,3.57-2.15,7.58-1.54,11.46-.71,1.54.32,4.04.8,6.16,1.65-2.05,2.71-5.02,4.44-8.29,5.76-.16.07-.32.13-.48.18-.15.06-.3.12-.45.17-.51.19-1.02.38-1.54.55-.23.09-.45.16-.68.24-3.73,1.24-7.61,2.24-10.82,3.71-3.92,1.82-9.71,4.87-10.61,9.58-.02.16.16.23.25.11,4.34-5.63,10.88-5.41,17.25-6.19,1.1-.14,2.16-.35,3.2-.63-1.62,2.76-5.69,4.87-7.96,6.6-2.13,1.63-3.32,2.99-4.18,5.56-.04.14.18.24.25.1,1-2.21,3.57-3.31,5.92-3.95-.75,1.17-1.83,2.31-2.96,3.41,0,.01-.01.02-.02.02-.42.41-.84.81-1.27,1.2l-.12.12c-1.02.96-1.97,1.88-2.64,2.74-3.29,4.24-5.67,6.41-11.39,6.74-.15,0-.19.23-.04.26,2.75.67,5.46.93,8.27.49,1.83-.29,3.51-1,5.21-1.62-2.09,4.85-7.99,7.62-12.92,8.41-.13.02-.12.24,0,.26,2.25.55,4.12,1.45,6.38,1.63-6.32,3.6-14.92,3.84-21.84,3.96-7.87.15-15.79-.97-23.64.03-8.5,1.08-22.4,5.38-25.86,14.39-6.14,1.69-12.52,1.21-18.6-1.1-4.94-1.88-9.16-6.34-14.7-5.74-8.17.9-16.45,6.54-22.74,12.72-3.06,1.42-6.15,2.79-9.28,4.07-5.2,2.13-10.51,2.9-15.8,4.6-.14.05-.12.27.03.27.39.01,3.69.1,5.67.17-.87.47-1.73.91-2.62,1.34-.53.24-1.06.48-1.55.74-.03.01-.05.03-.08.04-1.24.58-2.51,1.15-3.79,1.68-.13.05-.14.29.03.27Z"/>
</svg>