<?xml version="1.0" encoding="UTF-8"?>
<svg id="_ÎÓÈ_1" data-name="—ÎÓÈ_1" xmlns="http://www.w3.org/2000/svg" viewBox="0 0 273.94 158.45">
  <defs>
    <style>
      .cls-1 {
        fill: #f5c518;
      }
    </style>
  </defs>
  <path class="cls-1" d="M263.54,29.89c-.83-1.54-1.6-3.18-2.57-4.64-.65-.98-1.64-1.71-2.35-2.63-1.84-5.29-5.44-9.67-9.86-13.35.16-2.26-.21-4.61-.36-6.81-.01-.11-.12-.21-.24-.14-1.35.94-3.15,2.3-3.97,3.91-.53-.3-1.06-.61-1.55-.96-1.28-.92-1.59-2-2.11-3.38-.2-.51-.45-1.86-1.13-1.9-.57-.02-1.33,2.65-1.45,2.99-.25.71-.46,1.4-.56,2.11-7.51-1.32-16.03-2.19-22.95,1.33-.12.06-.07.3.07.29,2.2-.26,4.31-.22,6.4.1-3.43.98-7.07.91-10.43,2.19-3.2,1.23-5.91,3.45-8.56,5.59-.12.1.01.31.15.26,1.76-.58,4.36-1.84,6.69-2.2-3.04,3.71-9.74,8.34-14.22,5.96-.17-.1-.32.15-.15.26,1.2.83,2.43,1.35,3.78,1.59-4.21,2.07-10.23,1.91-11.71,7.12-.04.12.11.26.22.17,1.17-.84,2.4-1.37,3.73-1.58-1.23,1.09-2.63,1.95-4.23,2.58-1.97.77-7.6,2.56-9.26.42-.11-.14-.35.05-.25.2.43.68.99,1.17,1.63,1.56-2.02-.3-3.95-.6-6.11,0-2.47.67-4.58,2.06-6.48,3.74-.1.1-.01.27.11.27.92.01,1.84.04,2.74.09-7.81,2.68-17.7.73-25.44-.65-7.91-1.4-15.41-2.98-23.49-2.96-11.96.04-26.49.79-35.51,9.47-1.89-.25-3.79.29-5.64.97-.02.01-.05.02-.07.02-1.83.51-3.7,1.27-5.48,2.1-.02.01-.04.01-.05.02-2.36.91-4.56,1.92-6.59,3.55-4.11,3.32-7.5,7.49-10.84,11.55-2.28,2.78-4.51,6.17-8.2,7.35-1.3.42-2.81.58-4.35.62-1.2-.09-2.47-.21-3.43-.02-1.06-.02-2.09-.05-3.04-.02-.16,0-.22.27-.04.3,3.18.47,6.37,1.19,9.56,1.19-3.34,3.12-10.12,2.84-13.96,3.65-2.91.62-5.34,2.56-7.53,4.48-.15.12.04.31.19.25,2.06-.92,3.99-1.42,6.08-1.55-4.4,2.17-9.21,3.29-13.73,5.17-3.04,1.27-7.36,2.51-9.66,4.91-.14.14.02.31.19.25,2.28-.99,4.46-1.7,6.76-2.21-4.57,2.57-9.18,5.24-14.01,7.15-.15.05-.15.31.04.3.5-.02.99-.09,1.51-.19.47,0,1.86-.41,3.04-.77,2.07-.6,4.16-1.22,6.03-1.02-1.44,2.17-4.15,3.41-6.21,4.93-1.6,1.18-3.13,2.45-4.63,3.76-.14.11.01.27.15.26,2.53-.4,4.42-1.84,6.62-3.07,2.22-1.23,4.56-2.16,6.98-2.86-.97,1.01-4.11,2.2-4.35,2.32-.19.05-.11.34.09.3,5.61-1.08,11.6-2.28,17.04-4.38-1.99,2.51-4.2,4.81-6.63,6.94-.11.1.01.32.15.26,5.91-2.33,10.87-6.28,16.58-8.88-1.55,1.92-3.19,3.76-4.94,5.54-.1.1,0,.32.15.26,2.77-1.09,5.56-2.19,8.2-3.6,1.29-.71,2.55-1.48,3.73-2.36.97-.74,2.02-1.91,3.14-2.77-.4.53-.79,1.06-1.22,1.58-.07.11-.15.21-.25.31-.51.6-.99,1.19-1.39,1.73-.04.06-.09.12-.14.19-.02.02-.04.05-.06.07-.67.82-1.35,1.61-2.05,2.41-.12.14.02.32.19.24,9.1-4.42,14.28-12.16,19.5-20.29-1.06,5.43-3.2,10.43-6.42,15.04-.05.07,0,.22.1.24,3.76.53,5.86-3.45,7.54-6.26,2.67-4.43,3.94-9.65,5.29-14.68,1.14,5.92.78,11.7-1.08,17.63-.06.17.2.27.29.12,2-3.51,3.81-7.13,4.32-11.19.75-5.9-.11-16.11,5.94-20.08-1.64,5.09-1.32,11.33,1.01,16.02,1.29,2.61,3.43,4.89,5.3,7.08,2.98,3.46,7.87,6.89,10.21,10.98-2.6,4.78-4.77,9.9-7.35,14.6-1.78,3.25-1.38,4.15,1.42,6.56.05.04.09.07.14.11,2.81,2.37,6.11,4.09,8.64,6.82,2.41,2.58,4.52,5.25,7.05,7.74,2.27,2.22,3.82,6.11,6.2,7.92,1.06.81,1.06.76,2,.66.07.36.2.72.36,1.06-.34.4-.63.83-.87,1.27-.21.38-.24.82.14,1.04-.86,1.03-1.61,2.19-1.4,3.48.38,2.42,3.29,6.35,5.27,7.77,3.69,2.67,4.74-4.01,5.34-7.51,1.14,1.75,3.01,3.22,4.11,4.94.88,1.37,1.73,2.86,3.22,3.3.31.99.58,1.99.83,3.01-.84,1.59-1.7,3.8-.92,5.14.56.97,2.67,1.38,3.58,1.73,1.74.67,3.49,1.39,5.31,1.76,1.19.24,2.97.82,3.33-.68.26-1.12-1.17-3.96-1.53-5.09-.6-1.86-1.2-3.73-1.83-5.58,2.15-.07,4.22-.36,6.42-.46,1.99-.07,3.75-.01,5.58-.67,1.32.27,2.68.5,3.94.16,1.79-.48,3.35-2.26,4.87-3.28,3.04-2.05,6.94-3.09,9.75-5.46,3.55.12,6.79-2.82,8.43-5.9.93-1.75,1.42-3.84,1.84-5.87.88-2.86,1.53-5.86,2.06-8.54,0-.02.01-.04.01-.06s.01-.05.01-.06c1.9-4.22,3.5-8.54,4.83-12.96,1.94-1.5,3.9-3.05,5.41-4.94,6.66,4.74,14.23,10.01,22.29,11.6.3.71.41,1.6.7,2.26.27.62.56,1.24.86,1.85-1.66,3.15-3.19,6.49-5.18,9.43-.93,1.38-2.24,2.38-3.28,3.6-.92-.1-1.8.24-2.4,1.01-.43.56-.66,1.22-.93,1.85-.7.26-1.38.53-2.05.82-.02.01-.05.02-.09.04-.26-1.91-1.19-2.33-3.32-2.45-1.45-.09-2.88-.31-4.09.6-1.28.93-2.38,2.68-3.37,3.91-.78.97-3.07,3.61-1.89,4.93,1.44,1.63,5.53.68,7.81.09.17.99.71,1.07,2.22.7,2.32-.57,4.63-1.63,6.79-2.81.73-.04,1.45-.06,2.19-.09.83-.01,1.71-.11,2.45-.55,1.42-.83,1.99-2.67,2.15-4.32,2.4-4.11,4.77-8.22,7.12-12.36,1.43-.91,2.78-1.74,3.34-3.41.62-1.86.61-5.56-.32-7.38-.96-1.85-3.38-3.02-4.78-4.4-2.27-2.25-4.11-4.82-6.33-7.07-.46-1.14-1.02-2.25-1.75-3.25-1.17-1.6-2.77-2.73-3.97-4.26,3.3-2.41,6.12-6.03,6.41-9.87,1.34-1.51,2.58-3.14,3.33-4.86.98-2.3.6-5.18.41-7.67,4.45-9.67,10.11-18.59,17.89-25.9,2.56.04,5.05,0,7.46-.78,2.58,2.15,5.65,3.38,8.73,5.12,3.58,2.01,6.93,4.4,10.23,6.83.1.17.21.35.32.52.7,1.06,1.32,2.35,2.37,3.09,1.32.92,4.17,1.97,5.34.46.81.05,1.63-.11,2.48-.63,1.55-.94,2.38-1.88,2.73-3.41,5.64-2.82-2.83-14.4-6.83-18.84-.56-1.08-1.13-2.16-1.7-3.23ZM100.6,102.82c1.01-2.94,3.27-5.72,5.3-8.26.19,6.16-.6,11.98-1.74,17.94-2.41-2.87-4.79-6.06-3.56-9.69ZM169.74,100.82c.04,5.45-.62,10.89-1.09,16.3-.29,3.24-.73,6.33-.05,9.38-3.85,5.76-8.54,9.49-15.52,11.2-2.67.66-5.35-.16-6.64,2.19-.46-.04-.91-.04-1.35,0-.97-3.02-1.25-4.52-4.76-3.05-1.9.79-5.59,2.4-7.44,4.5-1.84-3.14-4.07-5.96-6.35-8.83-2.83-3.58-4.89-7.8-7.85-11.24-.77-3.15-.87-6.48-.97-9.76,1.04-4.14,1.85-8.31,2.41-12.52,2.05-4.31,3.46-8.84,4.26-13.6,5.12,4.18,13.9,4.97,19.84,6.59,7.91,2.15,16.12,2.51,24.28,1.91.25,1.8.17,3.64.68,5.4.15.52.34,1.03.55,1.53Z"/>
</svg>